<svg xmlns="http://www.w3.org/2000/svg" version="1.1" xmlns:xlink="http://www.w3.org/1999/xlink" xmlns:svgjs="http://svgjs.com/svgjs" width="1440" height="560" preserveAspectRatio="none" viewBox="0 0 1440 560"><g mask="url(&quot;#SvgjsMask1255&quot;)" fill="none"><path d="M388.8 122.6a5.6 5.6 0 1 0 10.53-3.8 5.6 5.6 0 1 0-10.53 3.8zM403.85 117.18a5.6 5.6 0 1 0 10.54-3.8 5.6 5.6 0 1 0-10.54 3.8zM418.9 111.75a5.6 5.6 0 1 0 10.54-3.8 5.6 5.6 0 1 0-10.54 3.8zM433.95 106.33a5.6 5.6 0 1 0 10.54-3.8 5.6 5.6 0 1 0-10.54 3.8zM364.12 148.5a5.6 5.6 0 1 0 10.53-3.79 5.6 5.6 0 1 0-10.53 3.79zM379.17 143.08a5.6 5.6 0 1 0 10.54-3.8 5.6 5.6 0 1 0-10.54 3.8zM394.22 137.65a5.6 5.6 0 1 0 10.54-3.79 5.6 5.6 0 1 0-10.54 3.79zM409.27 132.23a5.6 5.6 0 1 0 10.54-3.8 5.6 5.6 0 1 0-10.54 3.8z" fill="rgba(255, 235, 115, 1)"></path><rect width="208.44" height="208.44" clip-path="url(&quot;#SvgjsClipPath1256&quot;)" x="147.34" y="-16.47" fill="url(#SvgjsPattern1257)" transform="rotate(312.89, 251.56, 87.75)"></rect><circle r="60.52303686220234" cx="286.95" cy="310.39" fill="rgba(135, 255, 143, 1)"></circle><rect width="288" height="288" clip-path="url(&quot;#SvgjsClipPath1258&quot;)" x="-88.45" y="12.65" fill="url(#SvgjsPattern1259)" transform="rotate(286, 55.55, 156.65)"></rect><path d="M535.16 270.38a5.6 5.6 0 1 0 4.12 10.41 5.6 5.6 0 1 0-4.12-10.41zM541.05 285.25a5.6 5.6 0 1 0 4.13 10.42 5.6 5.6 0 1 0-4.13-10.42zM546.95 300.13a5.6 5.6 0 1 0 4.12 10.41 5.6 5.6 0 1 0-4.12-10.41zM552.84 315a5.6 5.6 0 1 0 4.12 10.42 5.6 5.6 0 1 0-4.12-10.42z" fill="rgba(135, 255, 143, 1)"></path><rect width="327.6" height="327.6" clip-path="url(&quot;#SvgjsClipPath1260&quot;)" x="169.15" y="271.85" fill="url(#SvgjsPattern1261)" transform="rotate(157.11, 332.95, 435.65)"></rect><path d="M821.9 399.74a5.6 5.6 0 1 0-3.79-10.54 5.6 5.6 0 1 0 3.79 10.54zM816.49 384.69a5.6 5.6 0 1 0-3.79-10.54 5.6 5.6 0 1 0 3.79 10.54zM811.08 369.63a5.6 5.6 0 1 0-3.79-10.54 5.6 5.6 0 1 0 3.79 10.54zM805.67 354.57a5.6 5.6 0 1 0-3.79-10.54 5.6 5.6 0 1 0 3.79 10.54zM847.78 424.45a5.6 5.6 0 1 0-3.79-10.54 5.6 5.6 0 1 0 3.79 10.54zM842.37 409.39a5.6 5.6 0 1 0-3.79-10.54 5.6 5.6 0 1 0 3.79 10.54zM836.96 394.33a5.6 5.6 0 1 0-3.79-10.54 5.6 5.6 0 1 0 3.79 10.54zM831.55 379.28a5.6 5.6 0 1 0-3.79-10.54 5.6 5.6 0 1 0 3.79 10.54z" stroke="rgba(135, 255, 143, 1)" stroke-width="2.62" stroke-dasharray="2, 2"></path><rect width="306.24" height="306.24" clip-path="url(&quot;#SvgjsClipPath1262&quot;)" x="1170.53" y="263.23" fill="url(#SvgjsPattern1263)" transform="rotate(115.67, 1323.65, 416.35)"></rect><path d="M404.89 161.44L416.98 165.66 415.52 178.38 427.61 182.6 426.15 195.32 438.24 199.54 436.78 212.26" stroke="rgba(255, 235, 115, 1)" stroke-width="2.69" stroke-dasharray="4, 4"></path><path d="M1057.05 362.55 L1186.5 349.05L1199.7387492422456 433.7637492422456z" fill="rgba(135, 255, 143, 1)"></path><rect width="370.24" height="370.24" clip-path="url(&quot;#SvgjsClipPath1264&quot;)" x="533.36" y="-98.54" fill="url(#SvgjsPattern1265)" transform="rotate(209.79, 718.48, 86.58)"></rect><path d="M204.52 352.92L215.77 346.79 224.22 356.41 235.46 350.29 243.91 359.91 255.15 353.78 263.6 363.41M203.12 360.79L214.37 354.67 222.82 364.29 234.06 358.16 242.51 367.79 253.75 361.66 262.2 371.29M201.73 368.67L212.97 362.54 221.42 372.17 232.66 366.04 241.11 375.67 252.35 369.54 260.8 379.16" stroke="rgba(255, 235, 115, 1)" stroke-width="2.69"></path></g><defs><mask id="SvgjsMask1255"><rect width="1440" height="560" fill="#ffffff"></rect></mask><pattern x="0" y="0" width="208.44" height="11.58" patternUnits="userSpaceOnUse" id="SvgjsPattern1257"><rect width="208.44" height="5.79" x="0" y="0" fill="rgba(255, 235, 115, 1)"></rect><rect width="208.44" height="5.79" x="0" y="5.79" fill="rgba(0, 0, 0, 0)"></rect></pattern><clipPath id="SvgjsClipPath1256"><circle r="52.11" cx="251.56" cy="87.75"></circle></clipPath><pattern x="0" y="0" width="288" height="6" patternUnits="userSpaceOnUse" id="SvgjsPattern1259"><rect width="288" height="3" x="0" y="0" fill="rgba(255, 110, 109, 1)"></rect><rect width="288" height="3" x="0" y="3" fill="rgba(0, 0, 0, 0)"></rect></pattern><clipPath id="SvgjsClipPath1258"><circle r="72" cx="55.55" cy="156.65"></circle></clipPath><pattern x="0" y="0" width="12.6" height="12.6" patternUnits="userSpaceOnUse" id="SvgjsPattern1261"><path d="M6.3 1L6.3 11.6M1 6.3L11.6 6.3" stroke="rgba(255, 110, 109, 1)" fill="none" stroke-width="2.63"></path></pattern><clipPath id="SvgjsClipPath1260"><circle r="81.9" cx="332.95" cy="435.65"></circle></clipPath><pattern x="0" y="0" width="12.76" height="12.76" patternUnits="userSpaceOnUse" id="SvgjsPattern1263"><path d="M6.38 1L6.38 11.76M1 6.38L11.76 6.38" stroke="rgba(255, 235, 115, 1)" fill="none" stroke-width="2.45"></path></pattern><clipPath id="SvgjsClipPath1262"><circle r="76.56" cx="1323.65" cy="416.35"></circle></clipPath><pattern x="0" y="0" width="370.24" height="7.12" patternUnits="userSpaceOnUse" id="SvgjsPattern1265"><rect width="370.24" height="3.56" x="0" y="0" fill="rgba(255, 235, 115, 1)"></rect><rect width="370.24" height="3.56" x="0" y="3.56" fill="rgba(0, 0, 0, 0)"></rect></pattern><clipPath id="SvgjsClipPath1264"><circle r="92.56" cx="718.48" cy="86.58"></circle></clipPath></defs></svg>