<svg xmlns="http://www.w3.org/2000/svg" version="1.1" xmlns:xlink="http://www.w3.org/1999/xlink" xmlns:svgjs="http://svgjs.com/svgjs" width="1280" height="828" preserveAspectRatio="none" viewBox="0 0 1280 828"><g mask="url(&quot;#SvgjsMask1030&quot;)" fill="none"><path d="M56.55 99.81L130.12 99.81L130.12 116L56.55 116z" stroke="rgba(255, 165, 66, 1)"></path><path d="M443.02 38.84L478.91 38.84L478.91 74.73L443.02 74.73z" fill="rgba(255, 247, 21, 1)"></path><path d="M24.82 442.19a34.37 34.37 0 1 0-0.14-68.74z" fill="rgba(255, 247, 21, 1)"></path><path d="M993.46 746.94a4.47 4.47 0 1 0 3.36 8.29z" fill="rgba(255, 247, 21, 1)"></path><path d="M1121.64 211.5a18.06 18.06 0 1 0-36.01 2.72z" stroke="rgba(255, 247, 21, 1)"></path><path d="M438.28 215.58 a25.46 25.46 0 1 0 50.92 0 a25.46 25.46 0 1 0 -50.92 0z" fill="rgba(255, 165, 66, 1)"></path><path d="M862.69 669.71 a29.96 29.96 0 1 0 59.92 0 a29.96 29.96 0 1 0 -59.92 0z" stroke="rgba(255, 165, 66, 1)"></path><path d="M759.31 317.21L813.17 317.21L813.17 371.07L759.31 371.07z" fill="rgba(255, 165, 66, 1)"></path><path d="M91.87 84.78L166.54 84.78L166.54 123.85L91.87 123.85z" fill="rgba(255, 165, 66, 1)"></path><path d="M199.53 93.95 a72.71 72.71 0 1 0 145.42 0 a72.71 72.71 0 1 0 -145.42 0z" stroke="rgba(255, 165, 66, 1)"></path><path d="M350.54 296.53L412.18 296.53L412.18 358.17L350.54 358.17z" fill="rgba(255, 219, 12, 1)"></path><path d="M984.48 450.63 a66.76 66.76 0 1 0 133.52 0 a66.76 66.76 0 1 0 -133.52 0z" stroke="rgba(255, 219, 12, 1)"></path><path d="M171.75 127.85a11.16 11.16 0 1 0-15.46 16.09z" stroke="rgba(255, 247, 21, 1)"></path><path d="M956.19 247.04L982.64 247.04L982.64 320.82L956.19 320.82z" fill="rgba(255, 247, 21, 1)"></path><path d="M164.91 25.26 a10.55 10.55 0 1 0 21.1 0 a10.55 10.55 0 1 0 -21.1 0z" stroke="rgba(255, 219, 12, 1)"></path><path d="M1284.44 533.31a18.72 18.72 0 1 0-37.44 0.25z" fill="rgba(255, 165, 66, 1)"></path><path d="M817.91 354.56 a46.15 46.15 0 1 0 92.3 0 a46.15 46.15 0 1 0 -92.3 0z" fill="rgba(255, 219, 12, 1)"></path><path d="M278.51 653.85L339.28 653.85L339.28 714.62L278.51 714.62z" fill="rgba(255, 247, 21, 1)"></path><path d="M37.68 577.2L76.39 577.2L76.39 605.74L37.68 605.74z" stroke="rgba(255, 165, 66, 1)"></path><path d="M812.68 718.69L840.81 718.69L840.81 746.82L812.68 746.82z" stroke="rgba(255, 165, 66, 1)"></path></g><defs><mask id="SvgjsMask1030"><rect width="1280" height="828" fill="#ffffff"></rect></mask></defs></svg>