<svg class="animated" id="freepik_stories-fast-loading" xmlns="http://www.w3.org/2000/svg" viewBox="0 0 500 500" version="1.1" xmlns:xlink="http://www.w3.org/1999/xlink" xmlns:svgjs="http://svgjs.com/svgjs"><style>svg#freepik_stories-fast-loading:not(.animated) .animable {opacity: 0;}svg#freepik_stories-fast-loading.animated #el4xit1iwhvuk {animation: 1s 1 forwards cubic-bezier(.36,-0.01,.5,1.38) slideLeft;animation-delay: 0s;}svg#freepik_stories-fast-loading.animated #elqoik1v8rqbm {animation: 1s 1 forwards cubic-bezier(.36,-0.01,.5,1.38) slideLeft;animation-delay: 0.3333333333333333s;opacity: 0}svg#freepik_stories-fast-loading.animated #elje63co6ov0j {animation: 1s 1 forwards cubic-bezier(.36,-0.01,.5,1.38) slideLeft;animation-delay: 0.6666666666666666s;opacity: 0}svg#freepik_stories-fast-loading.animated #freepik--Clouds--inject-4 {animation: 1s 1 forwards cubic-bezier(.36,-0.01,.5,1.38) slideLeft,1.5s Infinite  linear floating;animation-delay: 0s,1s;}svg#freepik_stories-fast-loading.animated #el2aj1fx16239 {animation: 2.4s 1 forwards cubic-bezier(.36,-0.01,.5,1.38) slideLeft;animation-delay: 0s;}svg#freepik_stories-fast-loading.animated #elfsse36op19 {animation: 2.4s 1 forwards cubic-bezier(.36,-0.01,.5,1.38) slideLeft;animation-delay: 0.12631578947368421s;opacity: 0}svg#freepik_stories-fast-loading.animated #elnsxik2p35x {animation: 2.4s 1 forwards cubic-bezier(.36,-0.01,.5,1.38) slideLeft;animation-delay: 0.25263157894736843s;opacity: 0}svg#freepik_stories-fast-loading.animated #elk71x0she1vq {animation: 2.4s 1 forwards cubic-bezier(.36,-0.01,.5,1.38) slideLeft;animation-delay: 0.37894736842105264s;opacity: 0}svg#freepik_stories-fast-loading.animated #elxvkt9c4zmie {animation: 2.4s 1 forwards cubic-bezier(.36,-0.01,.5,1.38) slideLeft;animation-delay: 0.5052631578947369s;opacity: 0}svg#freepik_stories-fast-loading.animated #elbqc46bt5pcc {animation: 2.4s 1 forwards cubic-bezier(.36,-0.01,.5,1.38) slideLeft;animation-delay: 0.631578947368421s;opacity: 0}svg#freepik_stories-fast-loading.animated #elbaokg6xxnxk {animation: 2.4s 1 forwards cubic-bezier(.36,-0.01,.5,1.38) slideLeft;animation-delay: 0.7578947368421053s;opacity: 0}svg#freepik_stories-fast-loading.animated #el94ju3sjssa {animation: 2.4s 1 forwards cubic-bezier(.36,-0.01,.5,1.38) slideLeft;animation-delay: 0.8842105263157896s;opacity: 0}svg#freepik_stories-fast-loading.animated #el4rvshge8nxu {animation: 2.4s 1 forwards cubic-bezier(.36,-0.01,.5,1.38) slideLeft;animation-delay: 1.0105263157894737s;opacity: 0}svg#freepik_stories-fast-loading.animated #el3yjw9recm5h {animation: 2.4s 1 forwards cubic-bezier(.36,-0.01,.5,1.38) slideLeft;animation-delay: 1.1368421052631579s;opacity: 0}svg#freepik_stories-fast-loading.animated #elsigm013vvw {animation: 2.4s 1 forwards cubic-bezier(.36,-0.01,.5,1.38) slideLeft;animation-delay: 1.263157894736842s;opacity: 0}svg#freepik_stories-fast-loading.animated #elt023y6juof9 {animation: 2.4s 1 forwards cubic-bezier(.36,-0.01,.5,1.38) slideLeft;animation-delay: 1.3894736842105264s;opacity: 0}svg#freepik_stories-fast-loading.animated #elow7achcdav {animation: 2.4s 1 forwards cubic-bezier(.36,-0.01,.5,1.38) slideLeft;animation-delay: 1.5157894736842106s;opacity: 0}svg#freepik_stories-fast-loading.animated #elhnjut0ecnrg {animation: 2.4s 1 forwards cubic-bezier(.36,-0.01,.5,1.38) slideLeft;animation-delay: 1.6421052631578947s;opacity: 0}svg#freepik_stories-fast-loading.animated #elm4hiwt3cszl {animation: 2.4s 1 forwards cubic-bezier(.36,-0.01,.5,1.38) slideLeft;animation-delay: 1.7684210526315791s;opacity: 0}svg#freepik_stories-fast-loading.animated #elc13w87rlbj {animation: 2.4s 1 forwards cubic-bezier(.36,-0.01,.5,1.38) slideLeft;animation-delay: 1.8947368421052633s;opacity: 0}svg#freepik_stories-fast-loading.animated #elz3icy38nm {animation: 2.4s 1 forwards cubic-bezier(.36,-0.01,.5,1.38) slideLeft;animation-delay: 2.0210526315789474s;opacity: 0}svg#freepik_stories-fast-loading.animated #ell8testuzx6 {animation: 2.4s 1 forwards cubic-bezier(.36,-0.01,.5,1.38) slideLeft;animation-delay: 2.1473684210526316s;opacity: 0}svg#freepik_stories-fast-loading.animated #elu4c3jrocw6 {animation: 2.4s 1 forwards cubic-bezier(.36,-0.01,.5,1.38) slideLeft;animation-delay: 2.2736842105263158s;opacity: 0}svg#freepik_stories-fast-loading.animated #freepik--Device--inject-4 {animation: 2.4s 1 forwards cubic-bezier(.36,-0.01,.5,1.38) slideLeft,1.5s Infinite  linear shake;animation-delay: 0s,2.4s;}svg#freepik_stories-fast-loading.animated #elrwjc2dnq1eq {animation: 1s 1 forwards ease-in slideLeft;animation-delay: 0s;}svg#freepik_stories-fast-loading.animated #el7o3d7chf1bc {animation: 1s 1 forwards ease-in slideLeft;animation-delay: 0.029411764705882353s;opacity: 0}svg#freepik_stories-fast-loading.animated #el8o4k05ykzw6 {animation: 1s 1 forwards ease-in slideLeft;animation-delay: 0.058823529411764705s;opacity: 0}svg#freepik_stories-fast-loading.animated #elu88lolav0l {animation: 1s 1 forwards ease-in slideLeft;animation-delay: 0.08823529411764705s;opacity: 0}svg#freepik_stories-fast-loading.animated #elgu1dzibgoku {animation: 1s 1 forwards ease-in slideLeft;animation-delay: 0.11764705882352941s;opacity: 0}svg#freepik_stories-fast-loading.animated #elcylpg0fpflb {animation: 1s 1 forwards ease-in slideLeft;animation-delay: 0.14705882352941177s;opacity: 0}svg#freepik_stories-fast-loading.animated #elad6m64bxzi {animation: 1s 1 forwards ease-in slideLeft;animation-delay: 0.1764705882352941s;opacity: 0}svg#freepik_stories-fast-loading.animated #elcwpsy8eaach {animation: 1s 1 forwards ease-in slideLeft;animation-delay: 0.20588235294117646s;opacity: 0}svg#freepik_stories-fast-loading.animated #elzxz6fg1md6p {animation: 1s 1 forwards ease-in slideLeft;animation-delay: 0.23529411764705882s;opacity: 0}svg#freepik_stories-fast-loading.animated #eljddvmggk6k {animation: 1s 1 forwards ease-in slideLeft;animation-delay: 0.2647058823529412s;opacity: 0}svg#freepik_stories-fast-loading.animated #el3pfaijo2z96 {animation: 1s 1 forwards ease-in slideLeft;animation-delay: 0.29411764705882354s;opacity: 0}svg#freepik_stories-fast-loading.animated #elyihd4l096zf {animation: 1s 1 forwards ease-in slideLeft;animation-delay: 0.3235294117647059s;opacity: 0}svg#freepik_stories-fast-loading.animated #eleclf4fs2c7 {animation: 1s 1 forwards ease-in slideLeft;animation-delay: 0.3529411764705882s;opacity: 0}svg#freepik_stories-fast-loading.animated #el83h8e9jpfor {animation: 1s 1 forwards ease-in slideLeft;animation-delay: 0.38235294117647056s;opacity: 0}svg#freepik_stories-fast-loading.animated #eldbls94bndu {animation: 1s 1 forwards ease-in slideLeft;animation-delay: 0.4117647058823529s;opacity: 0}svg#freepik_stories-fast-loading.animated #el06t8myf2bz8x {animation: 1s 1 forwards ease-in slideLeft;animation-delay: 0.4411764705882353s;opacity: 0}svg#freepik_stories-fast-loading.animated #elq2weeaesod {animation: 1s 1 forwards ease-in slideLeft;animation-delay: 0.47058823529411764s;opacity: 0}svg#freepik_stories-fast-loading.animated #elsaguk20nsz {animation: 1s 1 forwards ease-in slideLeft;animation-delay: 0.5s;opacity: 0}svg#freepik_stories-fast-loading.animated #eluqqwsiikdn {animation: 1s 1 forwards ease-in slideLeft;animation-delay: 0.5294117647058824s;opacity: 0}svg#freepik_stories-fast-loading.animated #ely52bj8sdk7 {animation: 1s 1 forwards ease-in slideLeft;animation-delay: 0.5588235294117647s;opacity: 0}svg#freepik_stories-fast-loading.animated #elput6x0vparq {animation: 1s 1 forwards ease-in slideLeft;animation-delay: 0.5882352941176471s;opacity: 0}svg#freepik_stories-fast-loading.animated #ely7velsfb7u {animation: 1s 1 forwards ease-in slideLeft;animation-delay: 0.6176470588235294s;opacity: 0}svg#freepik_stories-fast-loading.animated #elr6e3uilmw5 {animation: 1s 1 forwards ease-in slideLeft;animation-delay: 0.6470588235294118s;opacity: 0}svg#freepik_stories-fast-loading.animated #eljyynoazgxuj {animation: 1s 1 forwards ease-in slideLeft;animation-delay: 0.6764705882352942s;opacity: 0}svg#freepik_stories-fast-loading.animated #elp2cs724gegd {animation: 1s 1 forwards ease-in slideLeft;animation-delay: 0.7058823529411764s;opacity: 0}svg#freepik_stories-fast-loading.animated #elicgcp12zij {animation: 1s 1 forwards ease-in slideLeft;animation-delay: 0.7352941176470588s;opacity: 0}svg#freepik_stories-fast-loading.animated #ele4zdu3irbn6 {animation: 1s 1 forwards ease-in slideLeft;animation-delay: 0.7647058823529411s;opacity: 0}svg#freepik_stories-fast-loading.animated #elgmskzjffktc {animation: 1s 1 forwards ease-in slideLeft;animation-delay: 0.7941176470588235s;opacity: 0}svg#freepik_stories-fast-loading.animated #el15bbet5knf {animation: 1s 1 forwards ease-in slideLeft;animation-delay: 0.8235294117647058s;opacity: 0}svg#freepik_stories-fast-loading.animated #eltgh0nr7z6o {animation: 1s 1 forwards ease-in slideLeft;animation-delay: 0.8529411764705882s;opacity: 0}svg#freepik_stories-fast-loading.animated #elgnzukghixyf {animation: 1s 1 forwards ease-in slideLeft;animation-delay: 0.8823529411764706s;opacity: 0}svg#freepik_stories-fast-loading.animated #elme4ue6s6wb {animation: 1s 1 forwards ease-in slideLeft;animation-delay: 0.9117647058823529s;opacity: 0}svg#freepik_stories-fast-loading.animated #elmw63rr8uhjg {animation: 1s 1 forwards ease-in slideLeft;animation-delay: 0.9411764705882353s;opacity: 0}svg#freepik_stories-fast-loading.animated #elv47at2vhtim {animation: 1s 1 forwards ease-in slideLeft;animation-delay: 0.9705882352941176s;opacity: 0}svg#freepik_stories-fast-loading.animated #freepik--Car--inject-4 {animation: 1s 1 forwards ease-in slideLeft,1.5s Infinite  linear shake;animation-delay: 0s,1s;}            @keyframes slideLeft {                0% {                    opacity: 0;                    transform: translateX(-30px);                }                100% {                    opacity: 1;                    transform: translateX(0);                }            }                    @keyframes floating {                0% {                    opacity: 1;                    transform: translateY(0px);                }                50% {                    transform: translateY(-10px);                }                100% {                    opacity: 1;                    transform: translateY(0px);                }            }                    @keyframes shake {                10%, 90% {                    transform: translate3d(-1px, 0, 0);                  }                  20%, 80% {                    transform: translate3d(2px, 0, 0);                  }                  30%, 50%, 70% {                    transform: translate3d(-4px, 0, 0);                  }                  40%, 60% {                    transform: translate3d(4px, 0, 0);                  }            }        </style><g id="freepik--background-simple--inject-4" class="animable" style="transform-origin: 249.786px 240.85px;"><path d="M437.18,367.7c2.6-5.8,14.13-33.77,17.48-81.56,3.8-54-10.43-106.82-41.72-140.13s-57.84-25.28-89.13-17.24c-16.87,4.34-31.23-1.29-46.8-7.23-43.95-16.74-87.77-5.94-112.67,35.75-8.12,13.6-10.84,26.54-11.42,42.09s-.75,32.21-12.12,44.26c-15.17,16.08-36,13.79-49.31,40.21s-15.17,52.84-22.76,58.58-13.27,4.59-19,11.49c-3.62,4.38-4.94,10.16-5.42,13.78Z" style="fill: rgb(255, 207, 83); transform-origin: 249.786px 240.85px;" id="elapx4m6gq4qm" class="animable"></path><g id="eloa8sq23lrxl"><path d="M437.18,367.7c2.6-5.8,14.13-33.77,17.48-81.56,3.8-54-10.43-106.82-41.72-140.13s-57.84-25.28-89.13-17.24c-16.87,4.34-31.23-1.29-46.8-7.23-43.95-16.74-87.77-5.94-112.67,35.75-8.12,13.6-10.84,26.54-11.42,42.09s-.75,32.21-12.12,44.26c-15.17,16.08-36,13.79-49.31,40.21s-15.17,52.84-22.76,58.58-13.27,4.59-19,11.49c-3.62,4.38-4.94,10.16-5.42,13.78Z" style="fill: rgb(255, 255, 255); opacity: 0.7; transform-origin: 249.786px 240.85px;" class="animable"></path></g></g><g id="freepik--Clouds--inject-4" class="animable" style="transform-origin: 304.045px 163.448px;"><path d="M343,166.74c.93-.31-2.88-11.4-3.22-12.44-2.35-7.18-8.19-14.22-16.34-14.07s-17.55,11.5-25.68,6.88c-6.72-3.81-10.34-11.2-17.71-14.17-13.94-5.63-13.95,9.22-24.16,11.58-7.81,1.8-10.21-4.81-17.42.6s-2.41,7.81-10.21,9-9-.6-13.82,1.2-13.22,10.81-13.22,10.81-6.6-2.4-12.61,0-8.41,6-8.41,6h170S348.36,165.54,343,166.74Z" style="fill: rgb(255, 207, 83); transform-origin: 265.2px 151.903px;" id="el4xit1iwhvuk" class="animable"></path><path d="M424,192.34c.49-.17-1.53-6.08-1.72-6.64-1.25-3.82-4.37-7.58-8.71-7.5s-9.36,6.13-13.69,3.67c-3.59-2-5.52-6-9.45-7.56-7.43-3-7.43,4.92-12.88,6.18-4.16,1-5.44-2.56-9.29.32s-1.28,4.17-5.44,4.81-4.81-.32-7.37.64-7,5.76-7,5.76a10.57,10.57,0,0,0-6.72,0,10,10,0,0,0-4.49,3.2h90.65S426.89,191.7,424,192.34Z" style="fill: rgb(255, 207, 83); transform-origin: 382.565px 184.428px;" id="elqoik1v8rqbm" class="animable"></path><g id="elje63co6ov0j"><g style="opacity: 0.4; transform-origin: 304.045px 163.448px;" class="animable"><path d="M343,166.74c.93-.31-2.88-11.4-3.22-12.44-2.35-7.18-8.19-14.22-16.34-14.07s-17.55,11.5-25.68,6.88c-6.72-3.81-10.34-11.2-17.71-14.17-13.94-5.63-13.95,9.22-24.16,11.58-7.81,1.8-10.21-4.81-17.42.6s-2.41,7.81-10.21,9-9-.6-13.82,1.2-13.22,10.81-13.22,10.81-6.6-2.4-12.61,0-8.41,6-8.41,6h170S348.36,165.54,343,166.74Z" style="fill: rgb(255, 255, 255); transform-origin: 265.2px 151.903px;" id="el5kfczgbtl7h" class="animable"></path><path d="M424,192.34c.49-.17-1.53-6.08-1.72-6.64-1.25-3.82-4.37-7.58-8.71-7.5s-9.36,6.13-13.69,3.67c-3.59-2-5.52-6-9.45-7.56-7.43-3-7.43,4.92-12.88,6.18-4.16,1-5.44-2.56-9.29.32s-1.28,4.17-5.44,4.81-4.81-.32-7.37.64-7,5.76-7,5.76a10.57,10.57,0,0,0-6.72,0,10,10,0,0,0-4.49,3.2h90.65S426.89,191.7,424,192.34Z" style="fill: rgb(255, 255, 255); transform-origin: 382.565px 184.428px;" id="el8tj624v971g" class="animable"></path></g></g></g><g id="freepik--Device--inject-4" class="animable animator-active" style="transform-origin: 287.26px 289.78px;"><path d="M235.25,211.06H427.12a4.29,4.29,0,0,1,4.29,4.29V356.73a0,0,0,0,1,0,0H231a0,0,0,0,1,0,0V215.35A4.29,4.29,0,0,1,235.25,211.06Z" style="fill: rgb(255, 207, 83); stroke: rgb(38, 50, 56); stroke-linecap: round; stroke-linejoin: round; transform-origin: 331.205px 283.895px;" id="el2aj1fx16239" class="animable"></path><path d="M247,222.12H415.36a4.29,4.29,0,0,1,4.29,4.29V358.69a0,0,0,0,1,0,0H242.72a0,0,0,0,1,0,0V226.41A4.29,4.29,0,0,1,247,222.12Z" style="fill: rgb(38, 50, 56); stroke: rgb(38, 50, 56); stroke-linecap: round; stroke-linejoin: round; transform-origin: 331.185px 290.405px;" id="elfsse36op19" class="animable"></path><path d="M429.46,368.5H222.73c-10.83,0-19.62-6.56-19.62-14.65h246C449.07,361.94,440.29,368.5,429.46,368.5Z" style="fill: rgb(255, 207, 83); stroke: rgb(38, 50, 56); stroke-linecap: round; stroke-linejoin: round; transform-origin: 326.11px 361.175px;" id="elnsxik2p35x" class="animable"></path><rect x="272.83" y="274.8" width="106.53" height="17.85" rx="5" style="fill: rgb(255, 255, 255); stroke: rgb(38, 50, 56); stroke-linecap: round; stroke-linejoin: round; transform-origin: 326.095px 283.725px;" id="elk71x0she1vq" class="animable"></rect><rect x="321.55" y="278.04" width="9.08" height="11.36" style="fill: rgb(255, 207, 83); stroke: rgb(38, 50, 56); stroke-linecap: round; stroke-linejoin: round; transform-origin: 326.09px 283.72px;" id="elxvkt9c4zmie" class="animable"></rect><rect x="310.59" y="278.04" width="9.08" height="11.36" style="fill: rgb(255, 207, 83); stroke: rgb(38, 50, 56); stroke-linecap: round; stroke-linejoin: round; transform-origin: 315.13px 283.72px;" id="elbqc46bt5pcc" class="animable"></rect><rect x="299.62" y="278.04" width="9.08" height="11.36" style="fill: rgb(255, 207, 83); stroke: rgb(38, 50, 56); stroke-linecap: round; stroke-linejoin: round; transform-origin: 304.16px 283.72px;" id="elbaokg6xxnxk" class="animable"></rect><rect x="288.65" y="278.04" width="9.08" height="11.36" style="fill: rgb(255, 207, 83); stroke: rgb(38, 50, 56); stroke-linecap: round; stroke-linejoin: round; transform-origin: 293.19px 283.72px;" id="el94ju3sjssa" class="animable"></rect><path d="M286.76,278h-4.47a5.68,5.68,0,0,0,0,11.36h4.47Z" style="fill: rgb(255, 207, 83); stroke: rgb(38, 50, 56); stroke-linecap: round; stroke-linejoin: round; transform-origin: 281.685px 283.68px;" id="el4rvshge8nxu" class="animable"></path><rect x="332.52" y="278.04" width="9.08" height="11.36" style="fill: rgb(255, 207, 83); stroke: rgb(38, 50, 56); stroke-linecap: round; stroke-linejoin: round; transform-origin: 337.06px 283.72px;" id="el3yjw9recm5h" class="animable"></rect><line x1="235.88" y1="220.98" x2="181.95" y2="220.98" style="fill: none; stroke: rgb(38, 50, 56); stroke-linecap: round; stroke-linejoin: round; transform-origin: 208.915px 220.98px;" id="elsigm013vvw" class="animable"></line><line x1="235.88" y1="276.48" x2="206.56" y2="276.48" style="fill: none; stroke: rgb(38, 50, 56); stroke-linecap: round; stroke-linejoin: round; transform-origin: 221.22px 276.48px;" id="elt023y6juof9" class="animable"></line><line x1="200.8" y1="276.48" x2="188.76" y2="276.48" style="fill: none; stroke: rgb(38, 50, 56); stroke-linecap: round; stroke-linejoin: round; transform-origin: 194.78px 276.48px;" id="elow7achcdav" class="animable"></line><line x1="235.88" y1="255.87" x2="175.67" y2="255.87" style="fill: none; stroke: rgb(38, 50, 56); stroke-linecap: round; stroke-linejoin: round; transform-origin: 205.775px 255.87px;" id="elhnjut0ecnrg" class="animable"></line><line x1="235.88" y1="245.93" x2="219.12" y2="245.93" style="fill: none; stroke: rgb(38, 50, 56); stroke-linecap: round; stroke-linejoin: round; transform-origin: 227.5px 245.93px;" id="elm4hiwt3cszl" class="animable"></line><line x1="235.88" y1="301.26" x2="175.67" y2="301.26" style="fill: none; stroke: rgb(38, 50, 56); stroke-linecap: round; stroke-linejoin: round; transform-origin: 205.775px 301.26px;" id="elc13w87rlbj" class="animable"></line><line x1="235.88" y1="323.19" x2="219.12" y2="323.19" style="fill: none; stroke: rgb(38, 50, 56); stroke-linecap: round; stroke-linejoin: round; transform-origin: 227.5px 323.19px;" id="elz3icy38nm" class="animable"></line><line x1="199.23" y1="230.41" x2="145.3" y2="230.41" style="fill: none; stroke: rgb(38, 50, 56); stroke-linecap: round; stroke-linejoin: round; transform-origin: 172.265px 230.41px;" id="ell8testuzx6" class="animable"></line><line x1="136.93" y1="230.41" x2="125.41" y2="230.41" style="fill: none; stroke: rgb(38, 50, 56); stroke-linecap: round; stroke-linejoin: round; transform-origin: 131.17px 230.41px;" id="elu4c3jrocw6" class="animable"></line></g><g id="freepik--Car--inject-4" class="animable" style="transform-origin: 183.385px 336.869px;"><path d="M176.51,331.23a7.51,7.51,0,0,1,6.25-9c7.8-1.76,9,7.61,9.17,9.95Z" style="fill: rgb(255, 207, 83); stroke: rgb(38, 50, 56); stroke-linecap: round; stroke-linejoin: round; transform-origin: 184.137px 327.096px;" id="elrwjc2dnq1eq" class="animable"></path><path d="M191.34,326.55h-7.22v1.95l7.81,3.71A10.77,10.77,0,0,0,191.34,326.55Z" style="fill: rgb(38, 50, 56); stroke: rgb(38, 50, 56); stroke-miterlimit: 10; transform-origin: 188.097px 329.38px;" id="el7o3d7chf1bc" class="animable"></path><path d="M71.35,311.33v35.9s13.26,4.29,23.6,8.59a237,237,0,0,1,21.47,10.53H233.1s-11.32.39-13.27-1.36-1.56-5.66,1.95-8,23.61-3.12,23.61-3.12,71.41-3.91,71.8-5.08.39-2.14-1.36-2.73-31-9.17-52.88-12.1-41.17-1.75-45.66-.39-16.39-.39-24.58-1.95a129.7,129.7,0,0,0-15.22-1.95v-7.22h-7.22v-2.14h2.93V310.16a45.68,45.68,0,0,0-18.74,1.76c-10,3.12-20.48,13.65-28.29,18.14s-16.58,6.83-20.87,6.83a21.2,21.2,0,0,1-7.22-1.17v-7.8l3.7-3.91V309.38H83.44s-.19,3.51-3.31,3.71S71.35,311.33,71.35,311.33Z" style="fill: rgb(255, 255, 255); stroke: rgb(38, 50, 56); stroke-miterlimit: 10; transform-origin: 194.375px 337.884px;" id="el8o4k05ykzw6" class="animable"></path><path d="M98.08,328.17v-.25l3.7-3.91V309.38H83.44s-.19,3.51-3.31,3.71-8.78-1.76-8.78-1.76v33.75C75.53,340,83.41,333.44,98.08,328.17Z" style="fill: rgb(255, 207, 83); stroke: rgb(38, 50, 56); stroke-linecap: round; stroke-linejoin: round; transform-origin: 86.565px 327.23px;" id="elu88lolav0l" class="animable"></path><polygon points="134.95 351.12 125.33 351.12 137.67 366.35 148.35 366.35 134.95 351.12" style="fill: rgb(255, 207, 83); stroke: rgb(38, 50, 56); stroke-linecap: round; stroke-linejoin: round; transform-origin: 136.84px 358.735px;" id="elgu1dzibgoku" class="animable"></polygon><polygon points="151.04 351.12 141.43 351.12 153.76 366.35 164.44 366.35 151.04 351.12" style="fill: rgb(255, 207, 83); stroke: rgb(38, 50, 56); stroke-linecap: round; stroke-linejoin: round; transform-origin: 152.935px 358.735px;" id="elcylpg0fpflb" class="animable"></polygon><path d="M200.37,360.64c-8.63-2.16-13.49-9.18-17.27-16.2s-12.69-14-15.66-13.76-9.71,1.35-9.71,1.35-2.43-1.08-11.88-6.75a35.63,35.63,0,0,0-8-3.54,138.29,138.29,0,0,1-11.31,8.12q2.76.06,6.38.28c8.91.54,11.61,5.4,11.61,5.4a33.85,33.85,0,0,1,5.94-.54c3.24,0,13.22,8.36,15.65,17,1.56,5.55,6.69,11.1,10.15,14.35h47.63C215.53,364.34,205.15,361.83,200.37,360.64Z" style="fill: rgb(255, 207, 83); stroke: rgb(38, 50, 56); stroke-linecap: round; stroke-linejoin: round; transform-origin: 175.22px 344.045px;" id="elad6m64bxzi" class="animable"></path><path d="M233.1,366.35h-5.19C230.69,366.44,233.1,366.35,233.1,366.35Z" style="fill: rgb(38, 50, 56); stroke: rgb(38, 50, 56); stroke-miterlimit: 10; transform-origin: 230.505px 366.37px;" id="elcwpsy8eaach" class="animable"></path><path d="M221.78,357c3.51-2.34,23.61-3.12,23.61-3.12s25.59-1.4,46.22-2.78c-13.05-.69-51.77-2.58-60.66-1.13-10.73,1.76-31.61,6.25-43.32,11.32s-26.53.2-54.82-3.12c-20-2.35-37-4.31-45.25-5.25,2.49.93,5,1.92,7.39,2.91a237,237,0,0,1,21.47,10.53H227.91c-3.25-.09-7-.42-8.08-1.36C217.88,363.23,218.27,359.33,221.78,357Z" style="fill: rgb(38, 50, 56); stroke: rgb(38, 50, 56); stroke-miterlimit: 10; transform-origin: 189.585px 357.898px;" id="elzxz6fg1md6p" class="animable"></path><circle cx="264.65" cy="349.09" r="19.41" style="fill: rgb(38, 50, 56); transform-origin: 264.65px 349.09px;" id="eljddvmggk6k" class="animable"></circle><g id="el3pfaijo2z96"><g style="opacity: 0.31; transform-origin: 264.555px 348.565px;" class="animable"><path d="M280.78,338.28,264.4,348.64l19.29-3.38A19.28,19.28,0,0,0,280.78,338.28Z" style="fill: rgb(255, 255, 255); transform-origin: 274.045px 343.46px;" id="elmx6xg1150oj" class="animable"></path><path d="M247.88,358.85l16.77-9.76-19.23,2.64A19.09,19.09,0,0,0,247.88,358.85Z" style="fill: rgb(255, 255, 255); transform-origin: 255.035px 353.97px;" id="elkfjwlygbj3" class="animable"></path></g></g><path d="M246.87,356.87l9.89-5.06-10.94,2A18.71,18.71,0,0,0,246.87,356.87Z" style="fill: rgb(255, 255, 255); transform-origin: 251.29px 354.34px;" id="elyihd4l096zf" class="animable"></path><path d="M272.18,345.63l11-2.32a19.35,19.35,0,0,0-1.35-3.25Z" style="fill: rgb(255, 255, 255); transform-origin: 277.68px 342.845px;" id="eleclf4fs2c7" class="animable"></path><circle cx="264.65" cy="349.09" r="11.41" style="fill: rgb(255, 207, 83); stroke: rgb(38, 50, 56); stroke-linecap: round; stroke-linejoin: round; transform-origin: 264.65px 349.09px;" id="el83h8e9jpfor" class="animable"></circle><circle cx="264.65" cy="349.09" r="3.02" style="fill: rgb(38, 50, 56); transform-origin: 264.65px 349.09px;" id="eldbls94bndu" class="animable"></circle><polygon points="291.05 351.33 295.53 356.6 307.83 356.6 304.9 349.96 291.05 351.33" style="fill: rgb(38, 50, 56); stroke: rgb(38, 50, 56); stroke-miterlimit: 10; transform-origin: 299.44px 353.28px;" id="el06t8myf2bz8x" class="animable"></polygon><path d="M289.49,356.21v9.56H320.9v-8.2s-7.81-.58-15.61-1.95S291.24,354.84,289.49,356.21Z" style="fill: rgb(255, 255, 255); stroke: rgb(38, 50, 56); stroke-miterlimit: 10; transform-origin: 305.195px 360.306px;" id="elq2weeaesod" class="animable"></path><path d="M221,354.45v9.76H198.56v-2.73s6.83-1.17,10.34-3.52S214.76,354.26,221,354.45Z" style="fill: rgb(255, 255, 255); stroke: rgb(38, 50, 56); stroke-miterlimit: 10; transform-origin: 209.78px 359.321px;" id="elsaguk20nsz" class="animable"></path><path d="M213.19,338.26h-8.78s-3.7.78-3.31,4.09,3.12,7,4.68,7H220" style="fill: none; stroke: rgb(38, 50, 56); stroke-linecap: round; stroke-linejoin: round; transform-origin: 210.536px 343.805px;" id="eluqqwsiikdn" class="animable"></path><path d="M204.41,342c1-4.48,4.3-3.31,4.3-3.31l-.56-.39h-3.74s-3.7.78-3.31,4.09,3.12,7,4.68,7A9.29,9.29,0,0,1,204.41,342Z" style="fill: rgb(38, 50, 56); stroke: rgb(38, 50, 56); stroke-linecap: round; stroke-linejoin: round; transform-origin: 204.891px 343.845px;" id="ely52bj8sdk7" class="animable"></path><path d="M113.69,344.7c11.12-1.76,32-9.17,32-9.17,14.44-6,31.81-5.86,31.81-5.86" style="fill: none; stroke: rgb(38, 50, 56); stroke-miterlimit: 10; transform-origin: 145.595px 337.185px;" id="elput6x0vparq" class="animable"></path><path d="M105.49,349.18s33.76-6.44,60.29-10.92,41.37-2.15,47-3.12,8.78-2.54,13.86-2.74" style="fill: none; stroke: rgb(38, 50, 56); stroke-miterlimit: 10; transform-origin: 166.065px 340.79px;" id="ely7velsfb7u" class="animable"></path><path d="M171.63,310l-1.95-3.13s2.35-1.36-.58-1.56-6.44,0-6.83.78,2.54.59,2.54.59V310Z" style="fill: rgb(38, 50, 56); stroke: rgb(38, 50, 56); stroke-miterlimit: 10; transform-origin: 166.932px 307.619px;" id="elr6e3uilmw5" class="animable"></path><circle cx="101.49" cy="349.09" r="19.41" style="fill: rgb(38, 50, 56); transform-origin: 101.49px 349.09px;" id="eljyynoazgxuj" class="animable"></circle><g id="elp2cs724gegd"><g style="opacity: 0.31; transform-origin: 101.395px 348.565px;" class="animable"><path d="M117.62,338.28l-16.38,10.36,19.29-3.38A19.45,19.45,0,0,0,117.62,338.28Z" style="fill: rgb(255, 255, 255); transform-origin: 110.885px 343.46px;" id="el50v87bz493x" class="animable"></path><path d="M84.72,358.85l16.77-9.76-19.23,2.64A19.09,19.09,0,0,0,84.72,358.85Z" style="fill: rgb(255, 255, 255); transform-origin: 91.875px 353.97px;" id="eltjugwnun66" class="animable"></path></g></g><path d="M83.71,356.87l9.89-5.06-10.94,2A18.71,18.71,0,0,0,83.71,356.87Z" style="fill: rgb(255, 255, 255); transform-origin: 88.13px 354.34px;" id="elicgcp12zij" class="animable"></path><path d="M109,345.63l11-2.32a19.35,19.35,0,0,0-1.35-3.25Z" style="fill: rgb(255, 255, 255); transform-origin: 114.5px 342.845px;" id="ele4zdu3irbn6" class="animable"></path><circle cx="101.49" cy="349.09" r="11.41" style="fill: rgb(255, 207, 83); stroke: rgb(38, 50, 56); stroke-linecap: round; stroke-linejoin: round; transform-origin: 101.49px 349.09px;" id="elgmskzjffktc" class="animable"></circle><circle cx="101.49" cy="349.09" r="3.02" style="fill: rgb(38, 50, 56); transform-origin: 101.49px 349.09px;" id="el15bbet5knf" class="animable"></circle><line x1="162.24" y1="314.84" x2="132.92" y2="314.84" style="fill: none; stroke: rgb(38, 50, 56); stroke-linecap: round; stroke-linejoin: round; transform-origin: 147.58px 314.84px;" id="eltgh0nr7z6o" class="animable"></line><line x1="75.19" y1="323.6" x2="45.87" y2="323.6" style="fill: none; stroke: rgb(38, 50, 56); stroke-linecap: round; stroke-linejoin: round; transform-origin: 60.53px 323.6px;" id="elgnzukghixyf" class="animable"></line><line x1="75.19" y1="335.87" x2="58.6" y2="335.87" style="fill: none; stroke: rgb(38, 50, 56); stroke-linecap: round; stroke-linejoin: round; transform-origin: 66.895px 335.87px;" id="elme4ue6s6wb" class="animable"></line><line x1="136.54" y1="324.77" x2="119.95" y2="324.77" style="fill: none; stroke: rgb(38, 50, 56); stroke-linecap: round; stroke-linejoin: round; transform-origin: 128.245px 324.77px;" id="elmw63rr8uhjg" class="animable"></line><line x1="127.16" y1="314.84" x2="115.12" y2="314.84" style="fill: none; stroke: rgb(38, 50, 56); stroke-linecap: round; stroke-linejoin: round; transform-origin: 121.14px 314.84px;" id="elv47at2vhtim" class="animable"></line></g><g id="freepik--Floor--inject-4" class="animable" style="transform-origin: 250.815px 368.5px;"><line x1="35.8" y1="368.5" x2="465.83" y2="368.5" style="fill: none; stroke: rgb(38, 50, 56); stroke-linecap: round; stroke-linejoin: round; stroke-width: 3px; transform-origin: 250.815px 368.5px;" id="el49qdzq3ddbn" class="animable"></line></g><defs>     <filter id="active" height="200%">         <feMorphology in="SourceAlpha" result="DILATED" operator="dilate" radius="2"></feMorphology>                <feFlood flood-color="#32DFEC" flood-opacity="1" result="PINK"></feFlood>        <feComposite in="PINK" in2="DILATED" operator="in" result="OUTLINE"></feComposite>        <feMerge>            <feMergeNode in="OUTLINE"></feMergeNode>            <feMergeNode in="SourceGraphic"></feMergeNode>        </feMerge>    </filter>    <filter id="hover" height="200%">        <feMorphology in="SourceAlpha" result="DILATED" operator="dilate" radius="2"></feMorphology>                <feFlood flood-color="#ff0000" flood-opacity="0.5" result="PINK"></feFlood>        <feComposite in="PINK" in2="DILATED" operator="in" result="OUTLINE"></feComposite>        <feMerge>            <feMergeNode in="OUTLINE"></feMergeNode>            <feMergeNode in="SourceGraphic"></feMergeNode>        </feMerge>            <feColorMatrix type="matrix" values="0   0   0   0   0                0   1   0   0   0                0   0   0   0   0                0   0   0   1   0 "></feColorMatrix>    </filter></defs></svg>