<svg width="300" height="66" viewBox="0 0 300 66" fill="none" xmlns="http://www.w3.org/2000/svg">
<g clip-path="url(#clip0)">
<path fill-rule="evenodd" clip-rule="evenodd" d="M53.242 18.199C54.046 18.5844 56.2719 21.0345 56.9586 21.7236L67.358 32.1622C68.4939 33.3031 73.6885 38.3641 74.245 39.1706C76.3024 42.1643 71.3477 47.376 68.1008 44.2138C66.7326 42.8815 65.7881 41.9142 64.5016 40.6866C63.3938 39.63 61.9337 38.41 60.9917 37.2513L50.4647 26.9429C49.2343 25.7689 48.1393 24.7225 46.9089 23.551C44.0831 20.8635 42.2989 19.1485 37.2957 19.2276C31.925 19.7227 28.1752 22.8058 26.2326 26.2462C23.6723 30.7815 24.1012 36.3606 27.2639 39.727C30.1713 42.8177 33.2626 45.7655 36.2849 48.8001L49.875 62.4443C51.0416 63.6183 52.8055 65.9178 55.7742 64.9429C57.7729 64.287 59.6567 61.6965 58.2809 58.9733C57.6223 57.6691 46.4367 46.7686 44.9357 45.2627C43.371 43.6906 41.9389 42.2562 40.3742 40.6841C39.5701 39.875 38.8988 39.2038 38.0947 38.3947L36.0424 36.1513C35.2689 35.7608 34.3883 34.7808 33.8165 34.0789C31.6646 31.4323 35.565 27.2364 38.6052 28.02C39.6875 28.2982 40.3869 29.2476 40.997 29.8244C42.1559 30.9295 46.4239 34.8599 47.034 35.9089C47.9121 36.2917 55.7231 44.2291 57.2777 45.7119L62.337 50.699C63.6975 52.0185 66.439 53.6238 69.2189 53.8739C77.7982 54.6498 84.8792 45.9467 83.197 38.262C82.5461 35.2836 80.9814 33.6119 79.4728 32.0984L54.3906 6.91823C48.3792 0.864376 41.5331 -2.1064 32.7444 1.68619C30.5951 2.61264 27.8995 4.20523 26.5389 5.53493L16.3871 15.4886C15.481 16.3768 14.705 17.1348 13.8013 18.0204C13.3368 18.4747 13.0585 18.9162 12.6041 19.3807C9.51802 22.5327 3.69803 27.7724 1.25006 30.5084C-2.09643 34.2448 1.8729 39.3008 6.08218 37.5295C7.30745 37.014 17.4286 26.7158 18.8811 25.2942C21.8957 22.3413 31.4553 12.1707 34.2913 10.5475C42.1942 6.02751 46.5005 11.2187 50.9369 15.68C51.3837 16.1292 53.0914 17.6426 53.242 18.199Z" fill="white"/>
<path fill-rule="evenodd" clip-rule="evenodd" d="M143.223 21.4844C143.082 20.7417 143.093 20.2363 143.019 19.5089C142.914 18.4651 142.86 18.6412 141.781 18.6539C140.315 18.6693 138.853 18.6693 137.387 18.6693L137.474 39.8271L143.925 39.8195C143.927 37.6858 143.613 27.2166 144.241 25.6521C145.275 23.0667 148.862 22.5435 149.957 25.4046C150.674 27.2804 150.37 37.4204 150.368 39.8067L156.818 39.8271C156.821 36.5935 156.818 33.3573 156.818 30.1236C156.818 27.1069 156.622 23.5899 160.037 23.4879C163.337 23.3858 163.269 27.0839 163.266 29.9424C163.263 33.2373 163.269 36.5322 163.266 39.8271L169.719 39.8246C169.711 35.08 170.436 25.0243 168.455 21.5226C167.309 19.5013 165.311 17.998 162.043 18.1665C158.334 18.3579 157.405 20.1419 155.652 21.6911C154.679 20.4762 154.83 20.0577 153.443 19.1721C150.756 17.4544 146.766 17.9725 144.407 20.1572C143.899 20.6243 143.805 21.076 143.223 21.4844Z" fill="white"/>
<path fill-rule="evenodd" clip-rule="evenodd" d="M287.558 23.4623C293.789 21.2852 295.341 32.9897 290.292 34.835C287.027 36.0294 284.748 33.6201 284.694 30.6774C284.631 27.2038 284.485 24.5368 287.558 23.4623ZM277.864 37.4535C278.078 38.209 277.943 38.9823 277.904 39.8169L283.528 39.8143L283.78 36.9201C285.202 38.3723 286.119 40.1232 289.8 40.2865C296.937 40.6004 300.712 33.9085 299.882 26.9461C299.727 25.624 299.025 23.9421 298.994 23.1407C298.213 22.4516 297.146 19.0265 292.646 18.3042C288.357 17.6203 286.734 19.3507 284.697 21.127L284.694 9.07033L277.989 8.99121C278.264 10.8875 278.073 14.1773 278.073 16.2293C278.073 18.6054 278.073 20.9815 278.073 23.3576C278.075 25.5347 278.394 36.3995 277.864 37.4535Z" fill="white"/>
<path fill-rule="evenodd" clip-rule="evenodd" d="M252.324 18.6945L246.185 18.6817C244.789 23.5947 244.046 29.0794 243.079 34.2196C242.311 31.0089 240.166 21.188 239.263 18.674H234.117C233.21 21.3054 230.374 33.824 230.211 34.1226C229.994 33.6632 227.893 21.285 227.194 18.674L220.891 18.6689C220.215 18.8706 220.718 19.4525 221.19 21.0553C221.453 21.9383 221.703 22.8418 221.976 23.7402C223.347 28.2244 225.678 35.7586 226.676 39.8217H232.965C233.336 37.8386 234.267 35.1461 234.852 33.1221C235.569 30.6414 235.87 28.4363 236.455 25.9223L238.037 32.9001C238.594 35.0669 239.51 37.711 239.88 39.8192L246.129 39.8217C246.803 36.9632 250.834 24.2991 252.286 19.8277C252.511 19.1258 252.779 18.914 252.324 18.6945Z" fill="white"/>
<path fill-rule="evenodd" clip-rule="evenodd" d="M197.946 39.7346L204.573 39.8214C204.573 37.6009 204.195 26.9761 205.012 25.3962C205.522 24.406 206.569 23.5357 208.095 23.5255C211.569 23.4999 211.541 26.7642 211.539 29.9392C211.536 33.2341 211.536 36.529 211.541 39.8239H218.165C218.176 35.2478 218.806 25.3809 217.037 21.9048C215.225 18.3419 210.857 17.2623 207.243 19.0285C206.02 19.6257 205.481 20.3556 204.619 21.1366L204.575 9.12586L197.949 9.07227L197.946 39.7346Z" fill="white"/>
<path fill-rule="evenodd" clip-rule="evenodd" d="M132.274 37.2342C131.667 35.879 131.981 21.5023 131.991 18.774H125.594C125.589 20.5759 125.824 30.772 125.474 31.5274C125.408 35.2766 119.539 36.9432 118.72 31.6244C118.123 27.7425 119.067 22.4416 118.526 18.5469C117.186 18.9144 113.666 18.6515 112.04 18.677C111.705 21.1399 111.981 25.7824 111.981 28.4775C111.981 33.5156 112.045 40.5674 119.83 40.2892C121.273 40.2382 122.572 39.8349 123.647 39.2402C124.948 38.5205 125.273 37.6732 126.266 36.882L126.577 39.8247L132.326 39.8273L132.274 37.2342Z" fill="white"/>
<path fill-rule="evenodd" clip-rule="evenodd" d="M186.229 29.8782C186.985 36.7462 181.806 36.0418 180.769 34.9699C178.64 32.7648 181.175 29.3065 186.229 29.8782ZM175.103 20.1135L176.292 24.2404C178.12 23.4594 179.386 22.7907 181.788 22.7065C184.277 22.6197 186.056 23.2221 186.033 25.7207C179.804 25.7921 172.889 27.7012 173.591 34.508C173.89 37.42 175.937 39.4848 178.582 40.0896C182.273 40.9344 184.741 39.4337 186.533 37.7824C186.862 38.2699 186.962 39.25 187.036 39.8268H193.004C192.271 34.3676 193.798 24.7483 190.926 21.1599C187.003 16.2545 177.206 18.4162 175.103 20.1135Z" fill="white"/>
<path fill-rule="evenodd" clip-rule="evenodd" d="M260.136 26.846C260.437 24.5209 261.67 22.6884 264.013 22.5736C266.686 22.4408 267.852 24.304 267.967 26.846H260.136ZM272.636 36.6184L272.263 35.5643C272.192 35.2121 272.146 34.8523 272.09 34.4924C269.049 35.1254 260.858 37.1059 260.184 31.3506L273.841 31.3404C274.762 28.0251 273.649 24.0819 272.151 21.8053C270.596 19.4471 267.656 18.1097 263.653 18.2169C255.018 19.3118 252.414 27.3283 254.502 33.6093C257.386 42.292 269.739 40.6713 272.838 38.895C272.843 38.0196 272.49 37.3279 272.636 36.6184Z" fill="white"/>
<path fill-rule="evenodd" clip-rule="evenodd" d="M101.449 22.551L101.122 18.6997L95.5525 18.664L95.6418 39.8244L102.268 39.8219C102.268 36.213 102.143 32.3949 102.274 28.8346C102.411 25.0445 104.951 24.0083 108.706 24.4499L108.714 18.2582C106.587 18.0106 105.38 18.2684 103.902 19.3046C102.159 20.5297 102.039 21.9589 101.449 22.551Z" fill="white"/>
<path fill-rule="evenodd" clip-rule="evenodd" d="M221.364 48.9385C225.346 47.9151 225.657 55.3828 222.436 55.9724C220.47 56.3323 219.278 54.875 219.072 53.1548C218.814 51.0186 219.554 49.4056 221.364 48.9385ZM224.356 48.5965C223.906 48.1116 223.391 47.7517 222.638 47.5731C217.236 46.2663 215.23 54.7831 219.643 56.9678C221.989 58.129 223.409 56.8529 224.524 55.8474C224.588 60.5077 222.377 60.9492 218.482 59.5149L218.107 60.9263C228.641 64.3615 226.01 54.3875 226.359 47.6726C224.532 47.6624 224.805 47.5042 224.733 49.0253L224.356 48.5965Z" fill="white"/>
<path fill-rule="evenodd" clip-rule="evenodd" d="M166.881 57.1768C166.881 54.2801 165.883 49.0021 169.359 48.9408C172.44 48.8872 171.636 53.7364 171.639 57.4193H173.413C173.415 54.007 174.528 46.9603 169.551 47.4937C167.912 47.6698 167.634 48.4661 166.878 49.0761L166.868 43.1064H165.101L165.099 57.4218L166.881 57.1768Z" fill="white"/>
<path fill-rule="evenodd" clip-rule="evenodd" d="M98.46 50.5694C98.5621 49.2243 98.9807 47.4786 99.2385 46.0877C99.4504 44.9545 99.6674 45.0183 101.013 45.0821C105.222 45.2786 104.433 51.335 98.46 50.5694ZM98.2685 52.0037C100.081 52.0624 101.623 52.0318 103.065 51.1896C105.625 49.6965 106.417 45.3016 103.139 44.0765C101.868 43.6018 99.2462 43.5559 98.0133 44.1301L95.5015 57.4195C97.1581 57.4195 97.1326 57.6696 97.3853 56.1026C97.5461 55.0919 97.9086 52.6392 98.2685 52.0037Z" fill="white"/>
<path fill-rule="evenodd" clip-rule="evenodd" d="M112.55 48.8643C112.614 49.0072 112.627 48.9919 112.647 49.3109L112.259 51.6003C111.442 55.7349 108.698 57.1896 107.491 55.8089C106.353 54.5098 107.302 51.9193 108.106 50.7504C108.875 49.63 110.383 48.4304 112.55 48.8643ZM113.255 57.4168C113.237 53.7314 114.215 51.1511 114.641 47.7388C112.28 47.3917 110.661 47.1415 108.624 48.3411C107.31 49.117 106.079 50.5972 105.561 52.4068C105 54.3822 105.263 56.7098 106.973 57.4244C109.633 58.5372 111.723 55.3469 111.723 55.3418C111.744 55.2652 111.8 55.2601 111.843 55.227L111.688 57.4168H113.255Z" fill="white"/>
<path fill-rule="evenodd" clip-rule="evenodd" d="M244.873 48.9053C249.075 47.8384 249.66 55.1199 246.372 56.1663C242.257 57.4807 241.096 49.8649 244.873 48.9053ZM250.196 53.7034C251.646 46.7129 242.203 45.1841 240.909 51.2405C239.36 58.4837 248.896 59.9717 250.196 53.7034Z" fill="white"/>
<path fill-rule="evenodd" clip-rule="evenodd" d="M177.492 53.5225C176.54 48.3517 182.347 46.9837 183.217 51.5394C184.19 56.6336 178.349 58.1726 177.492 53.5225ZM175.631 53.3387C176.264 59.6427 185.91 58.9562 185.081 51.6925C184.371 45.4626 174.908 46.1262 175.631 53.3387Z" fill="white"/>
<path fill-rule="evenodd" clip-rule="evenodd" d="M283.339 48.8516C287.464 47.9788 287.949 55.3521 284.605 56.2046C280.381 57.2867 279.548 49.653 283.339 48.8516ZM281.744 47.8639C281.611 48.0349 280.832 48.5352 280.534 48.8363C277.519 51.8709 279.354 58.6062 284.827 57.5343C289.562 56.6053 290.448 48.8057 284.666 47.4887C283.388 47.4454 282.849 47.5985 281.744 47.8639Z" fill="white"/>
<path fill-rule="evenodd" clip-rule="evenodd" d="M208.524 57.4192C208.524 54.3821 207.646 49.1296 210.847 48.9305C214.102 48.7263 213.28 53.5832 213.28 57.3809L215.056 57.4192C215.059 53.4658 216.098 47.0648 211.207 47.4834C209.415 47.6391 209.142 48.5273 208.33 49.1475L208.243 47.6774L206.722 47.6595L206.747 57.4192H208.524Z" fill="white"/>
<path fill-rule="evenodd" clip-rule="evenodd" d="M298.808 49.1424C297.478 48.1981 297.95 47.4707 295.267 47.4707C293.33 47.8842 293.652 48.2211 292.488 49.099L292.378 47.6596H290.856L290.885 57.4295L292.659 57.3503C292.661 54.5021 291.653 49.0403 295.091 48.9255C298.231 48.8234 297.417 53.5297 297.417 57.4192H299.193C299.193 55.9364 299.191 54.4536 299.193 52.9733C299.196 49.903 298.833 49.9744 298.808 49.1424Z" fill="white"/>
<path fill-rule="evenodd" clip-rule="evenodd" d="M265.565 47.6723L263.697 47.708C263.691 51.4955 264.524 56.0283 261.274 56.1533C258.216 56.2707 259.028 51.3526 259.015 47.6902L257.157 47.6621C257.7 50.7682 255.684 58.0088 260.914 57.6234C262.714 57.4933 263.168 56.5004 263.88 55.9925L264.013 57.3886L265.542 57.4218C265.453 55.3851 265.223 49.3721 265.565 47.6723Z" fill="white"/>
<path fill-rule="evenodd" clip-rule="evenodd" d="M123.611 47.6728L122.164 47.7673L120.405 57.4044L122.059 57.4172C122.478 54.1836 123.024 49.7299 125.673 48.9362C129.285 47.8541 127.088 54.0738 126.615 57.4044L128.269 57.4172C128.525 55.5158 129.793 50.8631 129.403 49.2322C128.908 47.1726 126.546 46.9837 124.724 48.1756L123.751 49.0408C123.43 49.3777 123.731 49.1046 123.427 49.3369L123.611 47.6728Z" fill="white"/>
<path fill-rule="evenodd" clip-rule="evenodd" d="M137.781 51.83C138.01 50.2783 140.389 47.6495 142.02 49.0583C142.978 49.8852 142.166 51.1154 141.17 51.4625C140.183 51.807 138.878 51.8453 137.781 51.83ZM137.52 53.1265C140.331 53.1316 143.955 52.9606 144.019 50.0486C144.088 46.871 140.259 46.968 138.23 48.5274C135.218 50.8423 133.454 59.8414 142.745 56.9727L142.574 55.7885C141.727 55.763 137.426 58.0242 137.52 53.1265Z" fill="white"/>
<path fill-rule="evenodd" clip-rule="evenodd" d="M192.197 49.2626C192.539 48.8721 192.514 48.622 192.688 48.0759C189.025 45.932 184.94 49.7016 187.986 52.2513C189.081 53.1701 191.432 53.2518 191.335 54.9771C191.217 57.0877 188.386 56.072 187.082 55.6764L186.725 57.0061C192.524 59.2239 194.048 54.9566 192.499 53.0425C191.549 51.8659 189.239 51.5903 188.82 50.6715C188.21 49.3367 189.52 48.081 192.197 49.2626Z" fill="white"/>
<path fill-rule="evenodd" clip-rule="evenodd" d="M238.808 47.9914C233.471 46.0288 231.664 50.6534 234.16 52.3123C235.355 53.1061 237.606 53.3536 237.463 54.959C237.29 56.9216 234.617 56.2172 233.244 55.6991L232.851 57.0748C234.533 57.5393 236.169 58.1186 237.93 57.0416C239.327 56.1866 239.618 54.0887 238.535 52.8738C237.662 51.8938 235.173 51.613 234.867 50.5002C234.597 49.5176 235.278 48.9179 236.09 48.803C237.019 48.6729 237.749 49.0863 238.441 49.3058L238.808 47.9914Z" fill="white"/>
<path fill-rule="evenodd" clip-rule="evenodd" d="M194.242 48.9765L195.728 49.0761C195.988 52.5879 194.393 58.971 199.73 57.4474C199.973 56.965 199.909 57.0951 199.858 56.0845C197.877 56.2835 197.492 55.8241 197.492 53.887L197.555 49.0174L200.034 48.9816L200.032 47.6698L197.504 47.6596L197.441 45.3447L195.761 45.9241L195.738 47.6545L194.247 47.7004L194.242 48.9765Z" fill="white"/>
<path fill-rule="evenodd" clip-rule="evenodd" d="M273.037 56.1231C270.788 56.1614 270.553 56.0465 270.548 53.7061C270.545 52.407 270.428 50.1994 270.627 49.0228L273.095 48.9309V47.6803L270.563 47.6599L270.515 45.3936L268.817 45.8759L268.799 47.6574L267.306 47.6625L267.303 49.0075L268.741 49.01C269.348 52.5934 267.079 58.8565 272.919 57.4375L273.037 56.1231Z" fill="white"/>
<path fill-rule="evenodd" clip-rule="evenodd" d="M151.337 47.8097C149.614 47.3937 148.006 47.2635 146.778 48.3048C145.602 49.3002 145.51 50.9642 146.48 52.0872C147.274 53.006 149.288 53.3939 148.867 55.1167C148.364 57.1891 145.26 55.8977 144.895 55.8236L144.522 57.0028C148.951 59.0292 151.577 55.5863 150.378 53.3097C149.678 51.9775 147.761 51.6635 147.521 50.5048C147.09 48.4171 149.591 48.7157 150.947 49.1343L151.337 47.8097Z" fill="white"/>
<path fill-rule="evenodd" clip-rule="evenodd" d="M158.86 47.7973C152.772 46.5109 152.872 50.7425 153.903 51.9778C154.743 52.9834 156.647 53.3126 156.42 54.9715C156.167 56.8219 153.923 56.2451 152.484 55.8061L152.045 56.9623C155.297 58.7565 159.493 56.4059 157.89 53.2947C157.163 51.8808 155.205 51.7226 155.047 50.3954C154.75 47.9274 158.347 49.0581 158.495 49.0581L158.86 47.7973Z" fill="white"/>
<path fill-rule="evenodd" clip-rule="evenodd" d="M252.542 57.3983L254.321 57.4009L254.313 43.1136L253.601 43.1034L253.236 43.0957L252.544 43.1416L252.542 57.3983Z" fill="white"/>
<path fill-rule="evenodd" clip-rule="evenodd" d="M135.519 43.1167L133.867 43.1064L131.174 57.4116L132.821 57.4142L135.519 43.1167Z" fill="white"/>
<path fill-rule="evenodd" clip-rule="evenodd" d="M276.929 57.4801L276.863 47.8531V47.6592H275.094L275.092 47.8531V57.4086L276.929 57.4801Z" fill="white"/>
<path fill-rule="evenodd" clip-rule="evenodd" d="M202.028 57.4189H203.804L203.802 47.6592H202.028V57.4189Z" fill="white"/>
<path fill-rule="evenodd" clip-rule="evenodd" d="M117.092 57.419C117.51 57.2021 117.337 57.3526 117.528 56.8626L118.342 52.5596C118.651 50.967 119.014 49.2723 119.249 47.6798L117.615 47.667L115.767 57.4216H117.092V57.419Z" fill="white"/>
<path fill-rule="evenodd" clip-rule="evenodd" d="M125.474 31.5294C125.822 30.7713 125.587 20.5778 125.594 18.7759H131.991C131.981 21.5043 131.667 35.8783 132.275 37.2361L132.188 18.707L125.525 18.5947L125.474 31.5294Z" fill="white"/>
<path fill-rule="evenodd" clip-rule="evenodd" d="M202.454 43.9791C202.005 44.1757 202.048 43.8822 201.859 44.5917C201.553 45.7529 202.702 46.368 203.516 45.8372C204.527 45.1787 203.82 43.3819 202.454 43.9791Z" fill="white"/>
<path fill-rule="evenodd" clip-rule="evenodd" d="M274.887 45.2936C275.569 45.804 275.211 46.4089 276.881 45.7504C277.052 45.1277 277.047 44.7295 276.876 44.1094L275.528 43.8848C275.051 44.311 274.913 44.5177 274.887 45.2936Z" fill="white"/>
<path fill-rule="evenodd" clip-rule="evenodd" d="M119.711 43.9845C117.582 43.4741 117.62 45.3806 118.365 45.8604C119.389 46.5189 120.367 45.3831 119.711 43.9845Z" fill="white"/>
</g>
<defs>
<clipPath id="clip0">
<rect width="300" height="65.1811" fill="white"/>
</clipPath>
</defs>
</svg>
